M48
; DRILL file {KiCad (6.0.9)} date 2022年11月27日 星期日 18时10分06秒
; FORMAT={-:-/ absolute / inch / decimal}
; #@! TF.CreationDate,2022-11-27T18:10:06+08:00
; #@! TF.GenerationSoftware,Kicad,Pcbnew,(6.0.9)
; #@! TF.FileFunction,Plated,1,2,PTH
FMAT,2
INCH
; #@! TA.AperFunction,Plated,PTH,ViaDrill
T1C0.0157
; #@! TA.AperFunction,Plated,PTH,ComponentDrill
T2C0.0236
; #@! TA.AperFunction,Plated,PTH,ComponentDrill
T3C0.0394
%
G90
G05
T1
X1.922Y-1.368
X2.064Y-1.336
X2.073Y-1.783
X2.104Y-1.502
X2.132Y-1.64
X2.14Y-1.272
X2.21Y-1.852
X2.396Y-1.7335
X2.426Y-1.41
X2.4269Y-1.761
X2.47Y-1.652
X2.4838Y-1.8118
X2.4915Y-1.4705
X2.4957Y-1.5255
X2.506Y-1.3152
X2.51Y-1.6605
X2.52Y-1.6
X2.5369Y-1.5044
X2.5601Y-1.5583
X2.576Y-1.5004
X2.5929Y-1.6176
X2.6178Y-1.3615
X2.6456Y-1.4806
X2.6499Y-1.6899
X2.68Y-1.6612
X2.7155Y-1.355
X2.716Y-1.818
X2.7255Y-1.4272
X2.738Y-1.726
T3
X2.2982Y-1.478
X2.2982Y-1.578
X2.2982Y-1.678
T2
G00X1.9825Y-1.4073
M15
G01X2.014Y-1.4073
M16
G05
G00X1.9825Y-1.7474
M15
G01X2.014Y-1.7474
M16
G05
G00X2.1408Y-1.4073
M15
G01X2.1841Y-1.4073
M16
G05
G00X2.1408Y-1.7474
M15
G01X2.1841Y-1.7474
M16
G05
T0
M30
