%TF.GenerationSoftware,KiCad,Pcbnew,(6.0.9)*%
%TF.CreationDate,2022-11-27T18:10:09+08:00*%
%TF.ProjectId,usb2serial_pcb,75736232-7365-4726-9961-6c5f7063622e,1.0*%
%TF.SameCoordinates,Original*%
%TF.FileFunction,Copper,L2,Bot*%
%TF.FilePolarity,Positive*%
%FSLAX46Y46*%
G04 Gerber Fmt 4.6, Leading zero omitted, Abs format (unit mm)*
G04 Created by KiCad (PCBNEW (6.0.9)) date 2022-11-27 18:10:09*
%MOMM*%
%LPD*%
G01*
G04 APERTURE LIST*
G04 Aperture macros list*
%AMRoundRect*
0 Rectangle with rounded corners*
0 $1 Rounding radius*
0 $2 $3 $4 $5 $6 $7 $8 $9 X,Y pos of 4 corners*
0 Add a 4 corners polygon primitive as box body*
4,1,4,$2,$3,$4,$5,$6,$7,$8,$9,$2,$3,0*
0 Add four circle primitives for the rounded corners*
1,1,$1+$1,$2,$3*
1,1,$1+$1,$4,$5*
1,1,$1+$1,$6,$7*
1,1,$1+$1,$8,$9*
0 Add four rect primitives between the rounded corners*
20,1,$1+$1,$2,$3,$4,$5,0*
20,1,$1+$1,$4,$5,$6,$7,0*
20,1,$1+$1,$6,$7,$8,$9,0*
20,1,$1+$1,$8,$9,$2,$3,0*%
G04 Aperture macros list end*
%TA.AperFunction,ComponentPad*%
%ADD10O,1.700000X0.900000*%
%TD*%
%TA.AperFunction,ComponentPad*%
%ADD11O,2.000000X0.900000*%
%TD*%
%TA.AperFunction,SMDPad,CuDef*%
%ADD12R,0.450000X0.600000*%
%TD*%
%TA.AperFunction,SMDPad,CuDef*%
%ADD13RoundRect,0.150000X-0.700000X0.150000X-0.700000X-0.150000X0.700000X-0.150000X0.700000X0.150000X0*%
%TD*%
%TA.AperFunction,SMDPad,CuDef*%
%ADD14RoundRect,0.250000X-1.100000X0.250000X-1.100000X-0.250000X1.100000X-0.250000X1.100000X0.250000X0*%
%TD*%
%TA.AperFunction,SMDPad,CuDef*%
%ADD15RoundRect,0.135000X0.135000X0.185000X-0.135000X0.185000X-0.135000X-0.185000X0.135000X-0.185000X0*%
%TD*%
%TA.AperFunction,SMDPad,CuDef*%
%ADD16RoundRect,0.135000X-0.135000X-0.185000X0.135000X-0.185000X0.135000X0.185000X-0.135000X0.185000X0*%
%TD*%
%TA.AperFunction,SMDPad,CuDef*%
%ADD17RoundRect,0.135000X0.185000X-0.135000X0.185000X0.135000X-0.185000X0.135000X-0.185000X-0.135000X0*%
%TD*%
%TA.AperFunction,ComponentPad*%
%ADD18R,1.700000X1.700000*%
%TD*%
%TA.AperFunction,ComponentPad*%
%ADD19O,1.700000X1.700000*%
%TD*%
%TA.AperFunction,SMDPad,CuDef*%
%ADD20R,0.600000X0.450000*%
%TD*%
%TA.AperFunction,SMDPad,CuDef*%
%ADD21R,0.510000X0.400000*%
%TD*%
%TA.AperFunction,ViaPad*%
%ADD22C,0.800000*%
%TD*%
%TA.AperFunction,Conductor*%
%ADD23C,0.250000*%
%TD*%
G04 APERTURE END LIST*
D10*
%TO.P,J1,S1,SHIELD*%
%TO.N,GND*%
X50755800Y-44385020D03*
X50755800Y-35745020D03*
D11*
X54925800Y-35745020D03*
X54925800Y-44385020D03*
%TD*%
D12*
%TO.P,D3,1,K*%
%TO.N,/UART3_TX*%
X62585600Y-40961600D03*
%TO.P,D3,2,A*%
%TO.N,GND*%
X62585600Y-43061600D03*
%TD*%
D13*
%TO.P,J4,1,Pin_1*%
%TO.N,GND*%
X65409200Y-42946000D03*
%TO.P,J4,2,Pin_2*%
%TO.N,/UART3_TX*%
X65409200Y-44196000D03*
%TO.P,J4,3,Pin_3*%
%TO.N,/UART3_RX*%
X65409200Y-45446000D03*
D14*
%TO.P,J4,MP*%
%TO.N,N/C*%
X68609200Y-41096000D03*
X68609200Y-47296000D03*
%TD*%
D12*
%TO.P,D4,1,K*%
%TO.N,/UART3_RX*%
X62585600Y-47481200D03*
%TO.P,D4,2,A*%
%TO.N,GND*%
X62585600Y-45381200D03*
%TD*%
D15*
%TO.P,R1,1*%
%TO.N,/UART2_RX*%
X57660000Y-44958000D03*
%TO.P,R1,2*%
%TO.N,+3.3V*%
X56640000Y-44958000D03*
%TD*%
D16*
%TO.P,R4,1*%
%TO.N,/DBUS_RX*%
X58570400Y-44958000D03*
%TO.P,R4,2*%
%TO.N,Net-(Q1-Pad1)*%
X59590400Y-44958000D03*
%TD*%
D13*
%TO.P,J3,1,Pin_1*%
%TO.N,GND*%
X65409200Y-34716400D03*
%TO.P,J3,2,Pin_2*%
%TO.N,/UART1_RX*%
X65409200Y-35966400D03*
%TO.P,J3,3,Pin_3*%
%TO.N,/UART1_TX*%
X65409200Y-37216400D03*
D14*
%TO.P,J3,MP*%
%TO.N,N/C*%
X68609200Y-32866400D03*
X68609200Y-39066400D03*
%TD*%
D17*
%TO.P,R8,1*%
%TO.N,+3.3V*%
X52628800Y-47220600D03*
%TO.P,R8,2*%
%TO.N,/USB_D+*%
X52628800Y-46200600D03*
%TD*%
D12*
%TO.P,D1,1,K*%
%TO.N,/UART1_TX*%
X62534800Y-32681200D03*
%TO.P,D1,2,A*%
%TO.N,GND*%
X62534800Y-34781200D03*
%TD*%
D18*
%TO.P,J2,1,Pin_1*%
%TO.N,/DBUS_RX*%
X58375400Y-37541200D03*
D19*
%TO.P,J2,2,Pin_2*%
%TO.N,+5V*%
X58375400Y-40081200D03*
%TO.P,J2,3,Pin_3*%
%TO.N,GND*%
X58375400Y-42621200D03*
%TD*%
D12*
%TO.P,D2,1,K*%
%TO.N,/UART1_RX*%
X62585600Y-39200800D03*
%TO.P,D2,2,A*%
%TO.N,GND*%
X62585600Y-37100800D03*
%TD*%
D20*
%TO.P,D5,1,K*%
%TO.N,/DBUS_RX*%
X57522400Y-34747200D03*
%TO.P,D5,2,A*%
%TO.N,GND*%
X59622400Y-34747200D03*
%TD*%
D21*
%TO.P,Q1,1,B*%
%TO.N,Net-(Q1-Pad1)*%
X59522200Y-46134400D03*
%TO.P,Q1,2,E*%
%TO.N,GND*%
X59522200Y-47134400D03*
%TO.P,Q1,3,C*%
%TO.N,/UART2_RX*%
X58232200Y-46634400D03*
%TD*%
D22*
%TO.N,+3.3V*%
X63652400Y-33405700D03*
X54356000Y-32308800D03*
X68986400Y-46177200D03*
X52425600Y-33934400D03*
X62738000Y-41960800D03*
X69227500Y-36251470D03*
X61643030Y-44728266D03*
X61620400Y-35814000D03*
X56134000Y-47040800D03*
%TO.N,GND*%
X63754000Y-42177300D03*
X66490899Y-34581700D03*
X63089301Y-46020501D03*
X63284778Y-37349700D03*
X65859700Y-41086515D03*
X63390486Y-38748700D03*
%TO.N,/UART1_TX*%
X65431433Y-38110600D03*
%TO.N,/UART1_RX*%
X64437046Y-38211596D03*
%TO.N,/UART2_RX*%
X69545200Y-43840400D03*
%TO.N,/UART3_TX*%
X68072000Y-42195500D03*
%TO.N,/UART3_RX*%
X67308700Y-42922316D03*
%TO.N,/LED*%
X48818800Y-34747200D03*
X60858400Y-44030700D03*
%TO.N,+5V*%
X53441600Y-38150800D03*
X54152800Y-41656000D03*
%TO.N,/USB_D+*%
X52655300Y-45288200D03*
%TO.N,/BOOT0*%
X68973100Y-34415900D03*
X64008000Y-40640000D03*
X67197590Y-37606700D03*
X65026327Y-39581024D03*
%TD*%
D23*
%TO.N,+3.3V*%
X69227500Y-36251470D02*
X69418614Y-36060356D01*
X61875800Y-33197200D02*
X61875800Y-32056200D01*
X61875800Y-32056200D02*
X66193800Y-32056200D01*
X56640000Y-44958000D02*
X56640000Y-45468000D01*
X55118000Y-33020000D02*
X60096400Y-33020000D01*
X60655200Y-41148000D02*
X61468000Y-41960800D01*
X61643030Y-44728266D02*
X61643030Y-42829170D01*
X61643030Y-42829170D02*
X62511400Y-41960800D01*
X70284200Y-44879400D02*
X68986400Y-46177200D01*
X70284200Y-36704573D02*
X70284200Y-44879400D01*
X70385400Y-33691400D02*
X70385400Y-34872200D01*
X63652400Y-33405700D02*
X62084300Y-33405700D01*
X62084300Y-33405700D02*
X61875800Y-33197200D01*
X52628800Y-47220600D02*
X55954200Y-47220600D01*
X60655200Y-36779200D02*
X60655200Y-41148000D01*
X66934200Y-33354573D02*
X67271027Y-33691400D01*
X67271027Y-33691400D02*
X70385400Y-33691400D01*
X61620400Y-35814000D02*
X60655200Y-36779200D01*
X54608600Y-32056200D02*
X61875800Y-32056200D01*
X54356000Y-32308800D02*
X53086000Y-33578800D01*
X60096400Y-33020000D02*
X61620400Y-34544000D01*
X53086000Y-33578800D02*
X52781200Y-33578800D01*
X52781200Y-33578800D02*
X52425600Y-33934400D01*
X66934200Y-32796600D02*
X66934200Y-33354573D01*
X66193800Y-32056200D02*
X66934200Y-32796600D01*
X61620400Y-34544000D02*
X61620400Y-35814000D01*
X56640000Y-46534800D02*
X56640000Y-45468000D01*
X54610000Y-32512000D02*
X55118000Y-33020000D01*
X61468000Y-41960800D02*
X62738000Y-41960800D01*
X69418614Y-36060356D02*
X69418614Y-35838986D01*
X55954200Y-47220600D02*
X56134000Y-47040800D01*
X56134000Y-47040800D02*
X56640000Y-46534800D01*
X69418614Y-35838986D02*
X70284200Y-36704573D01*
X70385400Y-34872200D02*
X69418614Y-35838986D01*
X62511400Y-41960800D02*
X62738000Y-41960800D01*
%TO.N,GND*%
X62585600Y-45516800D02*
X63089301Y-46020501D01*
X59622400Y-41374200D02*
X59622400Y-34747200D01*
X56286400Y-34188400D02*
X54925800Y-35549000D01*
X65859700Y-42495500D02*
X65409200Y-42946000D01*
X59063600Y-34188400D02*
X56286400Y-34188400D01*
X54925800Y-35549000D02*
X54925800Y-35745020D01*
X65859700Y-41086515D02*
X65859700Y-42495500D01*
X62585600Y-43061600D02*
X62869700Y-43061600D01*
X62585600Y-43061600D02*
X62585600Y-45381200D01*
X65344400Y-34781200D02*
X62534800Y-34781200D01*
X50755800Y-35745020D02*
X50755800Y-44385020D01*
X63390486Y-38748700D02*
X63390486Y-38190341D01*
X62534800Y-34781200D02*
X62534800Y-37050000D01*
X62869700Y-43061600D02*
X63754000Y-42177300D01*
X63390486Y-38190341D02*
X63284778Y-38084633D01*
X62585600Y-45381200D02*
X60976800Y-46990000D01*
X62534800Y-37050000D02*
X62585600Y-37100800D01*
X58375400Y-42621200D02*
X59264862Y-43510662D01*
X65409200Y-42946000D02*
X65293600Y-43061600D01*
X59622400Y-34747200D02*
X59063600Y-34188400D01*
X63284778Y-38084633D02*
X63284778Y-37349700D01*
X65409200Y-34716400D02*
X65344400Y-34781200D01*
X62246800Y-45720000D02*
X62585600Y-45381200D01*
X60976800Y-46990000D02*
X60604400Y-46990000D01*
X60604400Y-46990000D02*
X60460000Y-47134400D01*
X62834500Y-37349700D02*
X62585600Y-37100800D01*
X59264862Y-43510662D02*
X59264862Y-43516862D01*
X65293600Y-43061600D02*
X62585600Y-43061600D01*
X65543900Y-34581700D02*
X65409200Y-34716400D01*
X60460000Y-47134400D02*
X59522200Y-47134400D01*
X58375400Y-42621200D02*
X59622400Y-41374200D01*
X54925800Y-35745020D02*
X50755800Y-35745020D01*
X62585600Y-45381200D02*
X62585600Y-45516800D01*
X66490899Y-34581700D02*
X65543900Y-34581700D01*
X61468000Y-45720000D02*
X62246800Y-45720000D01*
X50755800Y-44385020D02*
X54925800Y-44385020D01*
X59264862Y-43516862D02*
X61468000Y-45720000D01*
X63284778Y-37349700D02*
X62834500Y-37349700D01*
%TO.N,/UART1_TX*%
X67215899Y-34281395D02*
X66802000Y-33867496D01*
X66791204Y-35306700D02*
X67215899Y-34882005D01*
X67215899Y-34882005D02*
X67215899Y-34281395D01*
X66802000Y-33867496D02*
X66802000Y-33858769D01*
X66699700Y-36197651D02*
X66699700Y-35306700D01*
X62709800Y-32506200D02*
X62534800Y-32681200D01*
X66484200Y-33108600D02*
X65881800Y-32506200D01*
X66484200Y-33540969D02*
X66484200Y-33108600D01*
X65409200Y-37216400D02*
X65680951Y-37216400D01*
X65881800Y-32506200D02*
X62709800Y-32506200D01*
X65409200Y-38088367D02*
X65409200Y-37216400D01*
X66802000Y-33858769D02*
X66484200Y-33540969D01*
X65680951Y-37216400D02*
X66699700Y-36197651D01*
X65431433Y-38110600D02*
X65409200Y-38088367D01*
X66699700Y-35306700D02*
X66791204Y-35306700D01*
%TO.N,/UART1_RX*%
X63884863Y-39900160D02*
X63284253Y-39900160D01*
X64301327Y-39280719D02*
X64301327Y-39483696D01*
X64865624Y-38640174D02*
X64865624Y-38856024D01*
X64865624Y-38856024D02*
X64726022Y-38856024D01*
X62585600Y-39201507D02*
X62585600Y-39200800D01*
X64301327Y-39483696D02*
X63884863Y-39900160D01*
X64437046Y-37765997D02*
X64234200Y-37563151D01*
X64234200Y-36869649D02*
X65137449Y-35966400D01*
X64437046Y-38211596D02*
X64437046Y-37765997D01*
X64437046Y-38211596D02*
X64865624Y-38640174D01*
X64726022Y-38856024D02*
X64301327Y-39280719D01*
X64234200Y-37563151D02*
X64234200Y-36869649D01*
X65137449Y-35966400D02*
X65409200Y-35966400D01*
X63284253Y-39900160D02*
X62585600Y-39201507D01*
%TO.N,/UART2_RX*%
X58232200Y-46634400D02*
X58232200Y-46243400D01*
X65633600Y-48209200D02*
X66802000Y-47040800D01*
X69291200Y-43840400D02*
X69545200Y-43840400D01*
X66802000Y-47040800D02*
X66802000Y-46329600D01*
X58232200Y-46802200D02*
X59086200Y-47656200D01*
X58232200Y-46243400D02*
X57607200Y-45618400D01*
X66802000Y-46329600D02*
X69291200Y-43840400D01*
X57607200Y-45010800D02*
X57660000Y-44958000D01*
X59086200Y-47656200D02*
X59639200Y-48209200D01*
X57607200Y-45618400D02*
X57607200Y-45010800D01*
X58232200Y-46634400D02*
X58232200Y-46802200D01*
X59639200Y-48209200D02*
X65633600Y-48209200D01*
%TO.N,/UART3_TX*%
X65989200Y-44196000D02*
X65409200Y-44196000D01*
X64468610Y-41452300D02*
X65559395Y-40361515D01*
X66160005Y-40361515D02*
X66584200Y-40785710D01*
X66584200Y-43601000D02*
X65989200Y-44196000D01*
X66584200Y-43296200D02*
X66584200Y-43601000D01*
X66584200Y-42403400D02*
X66584200Y-43296200D01*
X65559395Y-40361515D02*
X66160005Y-40361515D01*
X68072000Y-42195500D02*
X67010211Y-42195500D01*
X63453695Y-41452300D02*
X64468610Y-41452300D01*
X62585600Y-40961600D02*
X62962995Y-40961600D01*
X62962995Y-40961600D02*
X63453695Y-41452300D01*
X66584200Y-42621511D02*
X66584200Y-43296200D01*
X67010211Y-42195500D02*
X66584200Y-42621511D01*
X66584200Y-40785710D02*
X66584200Y-42621511D01*
%TO.N,/UART3_RX*%
X67056000Y-44070951D02*
X65680951Y-45446000D01*
X65044000Y-45446000D02*
X65409200Y-45446000D01*
X62585600Y-47481200D02*
X63008800Y-47481200D01*
X65680951Y-45446000D02*
X65409200Y-45446000D01*
X67056000Y-43078400D02*
X67056000Y-44070951D01*
X67212084Y-42922316D02*
X67056000Y-43078400D01*
X67308700Y-42922316D02*
X67212084Y-42922316D01*
X63008800Y-47481200D02*
X65044000Y-45446000D01*
%TO.N,/DBUS_RX*%
X58570400Y-44958000D02*
X58255000Y-44642600D01*
X57522400Y-34747200D02*
X57522400Y-36688200D01*
X58255000Y-44582462D02*
X57150000Y-43477462D01*
X58255000Y-44642600D02*
X58255000Y-44582462D01*
X57150000Y-43477462D02*
X57150000Y-38766600D01*
X57522400Y-36688200D02*
X58375400Y-37541200D01*
X57150000Y-38766600D02*
X58375400Y-37541200D01*
%TO.N,/LED*%
X53644800Y-34442400D02*
X53340000Y-34747200D01*
X60072400Y-43244700D02*
X60072400Y-35840800D01*
X60072400Y-35840800D02*
X60247400Y-35665800D01*
X60247400Y-35665800D02*
X60247400Y-34339400D01*
X53340000Y-34747200D02*
X48818800Y-34747200D01*
X60247400Y-34339400D02*
X59385200Y-33477200D01*
X60858400Y-44030700D02*
X60072400Y-43244700D01*
X54610000Y-33477200D02*
X53644800Y-34442400D01*
X59385200Y-33477200D02*
X54610000Y-33477200D01*
%TO.N,+5V*%
X53441600Y-38150800D02*
X54152800Y-38862000D01*
X54152800Y-38862000D02*
X54152800Y-41656000D01*
%TO.N,/USB_D+*%
X52628800Y-45314700D02*
X52655300Y-45288200D01*
X52628800Y-46200600D02*
X52628800Y-45314700D01*
%TO.N,Net-(Q1-Pad1)*%
X59590400Y-44958000D02*
X59590400Y-46066200D01*
X59590400Y-46066200D02*
X59522200Y-46134400D01*
%TO.N,/BOOT0*%
X65026327Y-39581024D02*
X65026327Y-39621673D01*
X65026327Y-39621673D02*
X64008000Y-40640000D01*
X67197590Y-36191410D02*
X67197590Y-37606700D01*
X68973100Y-34415900D02*
X67197590Y-36191410D01*
%TD*%
%TA.AperFunction,Conductor*%
%TO.N,GND*%
G36*
X56719887Y-34130702D02*
G01*
X56766380Y-34184358D01*
X56776484Y-34254632D01*
X56769749Y-34280926D01*
X56720655Y-34411884D01*
X56713900Y-34474066D01*
X56713900Y-35020334D01*
X56720655Y-35082516D01*
X56771785Y-35218905D01*
X56815964Y-35277853D01*
X56859139Y-35335461D01*
X56857535Y-35336663D01*
X56886021Y-35388830D01*
X56888900Y-35415613D01*
X56888900Y-36609433D01*
X56888373Y-36620616D01*
X56886698Y-36628109D01*
X56886947Y-36636035D01*
X56886947Y-36636036D01*
X56888838Y-36696186D01*
X56888900Y-36700144D01*
X56888900Y-36728056D01*
X56889397Y-36731990D01*
X56889397Y-36731991D01*
X56889405Y-36732056D01*
X56890338Y-36743893D01*
X56891727Y-36788089D01*
X56894808Y-36798693D01*
X56897378Y-36807539D01*
X56901387Y-36826900D01*
X56903926Y-36846997D01*
X56906845Y-36854368D01*
X56906845Y-36854370D01*
X56920204Y-36888112D01*
X56924049Y-36899342D01*
X56934171Y-36934183D01*
X56936382Y-36941793D01*
X56940415Y-36948612D01*
X56940417Y-36948617D01*
X56946693Y-36959228D01*
X56955388Y-36976976D01*
X56962848Y-36995817D01*
X56967510Y-37002233D01*
X56967510Y-37002234D01*
X56988836Y-37031587D01*
X56995351Y-37041506D01*
X56999352Y-37048271D01*
X57016900Y-37112412D01*
X57016900Y-37951605D01*
X56996898Y-38019726D01*
X56979995Y-38040700D01*
X56757747Y-38262948D01*
X56749461Y-38270488D01*
X56742982Y-38274600D01*
X56737557Y-38280377D01*
X56696357Y-38324251D01*
X56693602Y-38327093D01*
X56673865Y-38346830D01*
X56671385Y-38350027D01*
X56663682Y-38359047D01*
X56633414Y-38391279D01*
X56629595Y-38398225D01*
X56629593Y-38398228D01*
X56623652Y-38409034D01*
X56612801Y-38425553D01*
X56600386Y-38441559D01*
X56597241Y-38448828D01*
X56597238Y-38448832D01*
X56582826Y-38482137D01*
X56577609Y-38492787D01*
X56556305Y-38531540D01*
X56554334Y-38539215D01*
X56554334Y-38539216D01*
X56551267Y-38551162D01*
X56544863Y-38569866D01*
X56541834Y-38576867D01*
X56536819Y-38588455D01*
X56535580Y-38596278D01*
X56535577Y-38596288D01*
X56529901Y-38632124D01*
X56527495Y-38643744D01*
X56522783Y-38662098D01*
X56516500Y-38686570D01*
X56516500Y-38706824D01*
X56514949Y-38726534D01*
X56511780Y-38746543D01*
X56512526Y-38754435D01*
X56515941Y-38790561D01*
X56516500Y-38802419D01*
X56516500Y-43398695D01*
X56515973Y-43409878D01*
X56514298Y-43417371D01*
X56514547Y-43425297D01*
X56514547Y-43425298D01*
X56516438Y-43485448D01*
X56516500Y-43489407D01*
X56516500Y-43517318D01*
X56516997Y-43521252D01*
X56516997Y-43521253D01*
X56517005Y-43521318D01*
X56517938Y-43533155D01*
X56519327Y-43577351D01*
X56523771Y-43592646D01*
X56524978Y-43596801D01*
X56528987Y-43616162D01*
X56531526Y-43636259D01*
X56534445Y-43643630D01*
X56534445Y-43643632D01*
X56547804Y-43677374D01*
X56551649Y-43688604D01*
X56559993Y-43717324D01*
X56563982Y-43731055D01*
X56568015Y-43737874D01*
X56568017Y-43737879D01*
X56574293Y-43748490D01*
X56582988Y-43766238D01*
X56590448Y-43785079D01*
X56595110Y-43791495D01*
X56595110Y-43791496D01*
X56616436Y-43820849D01*
X56622952Y-43830769D01*
X56637905Y-43856052D01*
X56645458Y-43868824D01*
X56659779Y-43883145D01*
X56672619Y-43898178D01*
X56684528Y-43914569D01*
X56688869Y-43918160D01*
X56720458Y-43980602D01*
X56713169Y-44051223D01*
X56668856Y-44106693D01*
X56596557Y-44129501D01*
X56490484Y-44129501D01*
X56422363Y-44109499D01*
X56375870Y-44055843D01*
X56372234Y-44047009D01*
X56343488Y-43968881D01*
X56337923Y-43957471D01*
X56242092Y-43802912D01*
X56234340Y-43792846D01*
X56109392Y-43660717D01*
X56099774Y-43652415D01*
X55950813Y-43548112D01*
X55939719Y-43541912D01*
X55772820Y-43469688D01*
X55760717Y-43465849D01*
X55581200Y-43428345D01*
X55571648Y-43427105D01*
X55568416Y-43427020D01*
X55314621Y-43427020D01*
X55246500Y-43407018D01*
X55200007Y-43353362D01*
X55189903Y-43283088D01*
X55195922Y-43258754D01*
X55235556Y-43147448D01*
X55235557Y-43147442D01*
X55237919Y-43140810D01*
X55241326Y-43112244D01*
X55257775Y-42974291D01*
X55259396Y-42960700D01*
X55249806Y-42869455D01*
X55241172Y-42787308D01*
X55241171Y-42787306D01*
X55240436Y-42780308D01*
X55181982Y-42608599D01*
X55131031Y-42525779D01*
X55090634Y-42460115D01*
X55090632Y-42460112D01*
X55086938Y-42454108D01*
X55082007Y-42449073D01*
X55082005Y-42449070D01*
X54964957Y-42329545D01*
X54964956Y-42329544D01*
X54960029Y-42324513D01*
X54954108Y-42320697D01*
X54948650Y-42316246D01*
X54949802Y-42314834D01*
X54909402Y-42268091D01*
X54899387Y-42197804D01*
X54914963Y-42152894D01*
X54984023Y-42033279D01*
X54984024Y-42033278D01*
X54987327Y-42027556D01*
X55046342Y-41845928D01*
X55066304Y-41656000D01*
X55059917Y-41595235D01*
X55047032Y-41472635D01*
X55047032Y-41472633D01*
X55046342Y-41466072D01*
X54987327Y-41284444D01*
X54891840Y-41119056D01*
X54818663Y-41037785D01*
X54787947Y-40973779D01*
X54786300Y-40953476D01*
X54786300Y-38940768D01*
X54786827Y-38929585D01*
X54788502Y-38922092D01*
X54786362Y-38854001D01*
X54786300Y-38850044D01*
X54786300Y-38822144D01*
X54785796Y-38818153D01*
X54784863Y-38806311D01*
X54784623Y-38798648D01*
X54783474Y-38762111D01*
X54780957Y-38753448D01*
X54777821Y-38742652D01*
X54773812Y-38723293D01*
X54772984Y-38716742D01*
X54771274Y-38703203D01*
X54768358Y-38695837D01*
X54768356Y-38695831D01*
X54755000Y-38662098D01*
X54751155Y-38650868D01*
X54741030Y-38616017D01*
X54741030Y-38616016D01*
X54738819Y-38608407D01*
X54728505Y-38590966D01*
X54719808Y-38573213D01*
X54715272Y-38561758D01*
X54712352Y-38554383D01*
X54686363Y-38518612D01*
X54679847Y-38508692D01*
X54667367Y-38487589D01*
X54657342Y-38470638D01*
X54643021Y-38456317D01*
X54630180Y-38441283D01*
X54622932Y-38431307D01*
X54618272Y-38424893D01*
X54584201Y-38396707D01*
X54575422Y-38388718D01*
X54388722Y-38202018D01*
X54354696Y-38139706D01*
X54352505Y-38126069D01*
X54352148Y-38122666D01*
X54364933Y-38052830D01*
X54413445Y-38000993D01*
X54477460Y-37983520D01*
X54491410Y-37983520D01*
X54626055Y-37968417D01*
X54632709Y-37966100D01*
X54790694Y-37911084D01*
X54790697Y-37911082D01*
X54797352Y-37908765D01*
X54897291Y-37846317D01*
X54945202Y-37816379D01*
X54951176Y-37812646D01*
X54978483Y-37785529D01*
X55074885Y-37689798D01*
X55074888Y-37689794D01*
X55079882Y-37684835D01*
X55088886Y-37670648D01*
X55124926Y-37613856D01*
X55177073Y-37531686D01*
X55190774Y-37493209D01*
X55235557Y-37367445D01*
X55235558Y-37367440D01*
X55237919Y-37360810D01*
X55240479Y-37339348D01*
X55258562Y-37187693D01*
X55259396Y-37180700D01*
X55257073Y-37158598D01*
X55241172Y-37007308D01*
X55241171Y-37007306D01*
X55240436Y-37000308D01*
X55195948Y-36869624D01*
X55192930Y-36798693D01*
X55228740Y-36737389D01*
X55292009Y-36705177D01*
X55315226Y-36703020D01*
X55521247Y-36703020D01*
X55527622Y-36702697D01*
X55663077Y-36688938D01*
X55675517Y-36686384D01*
X55849044Y-36632004D01*
X55860732Y-36626995D01*
X56019779Y-36538833D01*
X56030212Y-36531582D01*
X56168291Y-36413235D01*
X56177044Y-36404044D01*
X56288511Y-36260340D01*
X56295235Y-36249580D01*
X56375532Y-36086395D01*
X56379955Y-36074501D01*
X56395051Y-36016550D01*
X56394617Y-36002456D01*
X56386436Y-35999020D01*
X53466571Y-35999020D01*
X53453040Y-36002993D01*
X53452163Y-36009095D01*
X53508110Y-36161156D01*
X53513677Y-36172569D01*
X53609508Y-36327128D01*
X53617260Y-36337194D01*
X53742206Y-36469321D01*
X53751828Y-36477627D01*
X53777079Y-36495308D01*
X53821407Y-36550765D01*
X53828715Y-36621385D01*
X53811192Y-36666034D01*
X53714527Y-36818354D01*
X53712162Y-36824996D01*
X53656043Y-36982595D01*
X53656042Y-36982600D01*
X53653681Y-36989230D01*
X53637893Y-37121636D01*
X53636750Y-37131219D01*
X53608823Y-37196492D01*
X53550040Y-37236305D01*
X53511636Y-37242300D01*
X53346113Y-37242300D01*
X53339661Y-37243672D01*
X53339656Y-37243672D01*
X53252713Y-37262153D01*
X53159312Y-37282006D01*
X53153282Y-37284691D01*
X53153281Y-37284691D01*
X52990878Y-37356997D01*
X52990876Y-37356998D01*
X52984848Y-37359682D01*
X52830347Y-37471934D01*
X52825926Y-37476844D01*
X52825925Y-37476845D01*
X52715898Y-37599043D01*
X52702560Y-37613856D01*
X52607073Y-37779244D01*
X52548058Y-37960872D01*
X52547368Y-37967433D01*
X52547368Y-37967435D01*
X52542328Y-38015390D01*
X52528096Y-38150800D01*
X52528786Y-38157365D01*
X52541745Y-38280659D01*
X52548058Y-38340728D01*
X52607073Y-38522356D01*
X52702560Y-38687744D01*
X52706978Y-38692651D01*
X52706979Y-38692652D01*
X52820033Y-38818211D01*
X52830347Y-38829666D01*
X52893802Y-38875769D01*
X52972724Y-38933109D01*
X52984848Y-38941918D01*
X52990876Y-38944602D01*
X52990878Y-38944603D01*
X53146060Y-39013694D01*
X53159312Y-39019594D01*
X53249283Y-39038718D01*
X53339656Y-39057928D01*
X53339661Y-39057928D01*
X53346113Y-39059300D01*
X53393300Y-39059300D01*
X53461421Y-39079302D01*
X53507914Y-39132958D01*
X53519300Y-39185300D01*
X53519300Y-40953476D01*
X53499298Y-41021597D01*
X53486942Y-41037779D01*
X53413760Y-41119056D01*
X53318273Y-41284444D01*
X53259258Y-41466072D01*
X53258568Y-41472633D01*
X53258568Y-41472635D01*
X53245683Y-41595235D01*
X53239296Y-41656000D01*
X53259258Y-41845928D01*
X53318273Y-42027556D01*
X53321576Y-42033278D01*
X53321577Y-42033279D01*
X53348621Y-42080121D01*
X53413760Y-42192944D01*
X53418178Y-42197851D01*
X53418179Y-42197852D01*
X53486812Y-42274077D01*
X53541547Y-42334866D01*
X53546889Y-42338747D01*
X53546891Y-42338749D01*
X53679266Y-42434925D01*
X53722620Y-42491147D01*
X53728695Y-42561884D01*
X53718453Y-42592095D01*
X53718300Y-42592408D01*
X53714527Y-42598354D01*
X53712165Y-42604988D01*
X53656043Y-42762595D01*
X53656042Y-42762600D01*
X53653681Y-42769230D01*
X53652848Y-42776218D01*
X53652847Y-42776221D01*
X53645319Y-42839353D01*
X53632204Y-42949340D01*
X53632940Y-42956343D01*
X53632940Y-42956344D01*
X53643803Y-43059694D01*
X53651164Y-43129732D01*
X53709618Y-43301441D01*
X53715921Y-43311686D01*
X53800967Y-43449927D01*
X53800970Y-43449931D01*
X53804662Y-43455932D01*
X53805403Y-43456689D01*
X53830708Y-43520479D01*
X53817052Y-43590149D01*
X53787238Y-43627729D01*
X53683304Y-43716810D01*
X53674556Y-43725996D01*
X53563089Y-43869700D01*
X53556365Y-43880460D01*
X53476068Y-44043645D01*
X53471645Y-44055539D01*
X53456549Y-44113490D01*
X53456983Y-44127584D01*
X53465164Y-44131020D01*
X55053800Y-44131020D01*
X55121921Y-44151022D01*
X55168414Y-44204678D01*
X55179800Y-44257020D01*
X55179800Y-45324905D01*
X55184275Y-45340144D01*
X55185665Y-45341349D01*
X55193348Y-45343020D01*
X55521247Y-45343020D01*
X55527622Y-45342697D01*
X55663077Y-45328938D01*
X55675514Y-45326385D01*
X55747645Y-45303780D01*
X55818630Y-45302495D01*
X55879041Y-45339792D01*
X55906322Y-45388862D01*
X55909731Y-45400596D01*
X55913766Y-45407418D01*
X55913766Y-45407419D01*
X55988954Y-45534555D01*
X56006500Y-45598694D01*
X56006500Y-46037072D01*
X55986498Y-46105193D01*
X55932842Y-46151686D01*
X55906697Y-46160319D01*
X55892083Y-46163425D01*
X55858170Y-46170633D01*
X55858167Y-46170634D01*
X55851712Y-46172006D01*
X55845682Y-46174691D01*
X55845681Y-46174691D01*
X55683278Y-46246997D01*
X55683276Y-46246998D01*
X55677248Y-46249682D01*
X55671907Y-46253562D01*
X55671906Y-46253563D01*
X55666654Y-46257379D01*
X55522747Y-46361934D01*
X55518326Y-46366844D01*
X55518325Y-46366845D01*
X55460878Y-46430647D01*
X55394960Y-46503856D01*
X55391661Y-46509569D01*
X55391658Y-46509574D01*
X55383272Y-46524100D01*
X55331889Y-46573094D01*
X55274153Y-46587100D01*
X53577457Y-46587100D01*
X53509336Y-46567098D01*
X53462843Y-46513442D01*
X53453663Y-46439703D01*
X53454429Y-46437066D01*
X53454935Y-46430647D01*
X53457107Y-46403044D01*
X53457107Y-46403038D01*
X53457300Y-46400589D01*
X53457299Y-46000612D01*
X53454429Y-45964134D01*
X53422445Y-45854044D01*
X53422648Y-45783047D01*
X53434323Y-45755891D01*
X53486523Y-45665479D01*
X53486524Y-45665478D01*
X53489827Y-45659756D01*
X53548842Y-45478128D01*
X53567167Y-45303780D01*
X53568114Y-45294765D01*
X53568804Y-45288200D01*
X53563812Y-45240706D01*
X53576584Y-45170869D01*
X53625086Y-45119022D01*
X53693918Y-45101627D01*
X53761392Y-45124323D01*
X53900787Y-45221928D01*
X53911881Y-45228128D01*
X54078780Y-45300352D01*
X54090883Y-45304191D01*
X54270400Y-45341695D01*
X54279952Y-45342935D01*
X54283184Y-45343020D01*
X54653685Y-45343020D01*
X54668924Y-45338545D01*
X54670129Y-45337155D01*
X54671800Y-45329472D01*
X54671800Y-44657135D01*
X54667325Y-44641896D01*
X54665935Y-44640691D01*
X54658252Y-44639020D01*
X53466571Y-44639020D01*
X53425134Y-44651187D01*
X53409485Y-44661244D01*
X53338489Y-44661244D01*
X53280353Y-44624660D01*
X53266553Y-44609334D01*
X53112052Y-44497082D01*
X53106024Y-44494398D01*
X53106022Y-44494397D01*
X52943619Y-44422091D01*
X52943618Y-44422091D01*
X52937588Y-44419406D01*
X52844188Y-44399553D01*
X52757244Y-44381072D01*
X52757239Y-44381072D01*
X52750787Y-44379700D01*
X52559813Y-44379700D01*
X52553361Y-44381072D01*
X52553356Y-44381072D01*
X52466412Y-44399553D01*
X52373012Y-44419406D01*
X52366982Y-44422091D01*
X52366981Y-44422091D01*
X52204578Y-44494397D01*
X52204576Y-44494398D01*
X52198548Y-44497082D01*
X52193207Y-44500962D01*
X52193206Y-44500963D01*
X52085667Y-44579095D01*
X52044047Y-44609334D01*
X52043640Y-44608774D01*
X51984044Y-44637374D01*
X51963742Y-44639020D01*
X51027915Y-44639020D01*
X51012676Y-44643495D01*
X51011471Y-44644885D01*
X51009800Y-44652568D01*
X51009800Y-45324905D01*
X51014275Y-45340144D01*
X51015665Y-45341349D01*
X51023348Y-45343020D01*
X51201247Y-45343020D01*
X51207622Y-45342697D01*
X51343077Y-45328938D01*
X51355517Y-45326384D01*
X51529044Y-45272004D01*
X51540730Y-45266996D01*
X51562121Y-45255138D01*
X51631397Y-45239605D01*
X51698074Y-45263992D01*
X51740982Y-45320556D01*
X51748519Y-45352168D01*
X51761758Y-45478128D01*
X51820773Y-45659756D01*
X51833888Y-45682471D01*
X51842241Y-45696940D01*
X51858978Y-45765936D01*
X51849661Y-45806094D01*
X51848531Y-45808004D01*
X51803171Y-45964134D01*
X51802667Y-45970541D01*
X51802666Y-45970545D01*
X51800493Y-45998156D01*
X51800300Y-46000611D01*
X51800301Y-46400588D01*
X51803171Y-46437066D01*
X51822575Y-46503856D01*
X51844344Y-46578783D01*
X51848531Y-46593196D01*
X51852567Y-46600021D01*
X51852569Y-46600025D01*
X51880031Y-46646461D01*
X51897491Y-46715277D01*
X51880031Y-46774739D01*
X51852569Y-46821175D01*
X51852567Y-46821179D01*
X51848531Y-46828004D01*
X51846320Y-46835615D01*
X51846319Y-46835617D01*
X51832579Y-46882910D01*
X51803171Y-46984134D01*
X51802667Y-46990541D01*
X51802666Y-46990545D01*
X51801846Y-47000967D01*
X51800300Y-47020611D01*
X51800301Y-47420588D01*
X51803171Y-47457066D01*
X51816238Y-47502042D01*
X51845919Y-47604204D01*
X51848531Y-47613196D01*
X51852567Y-47620021D01*
X51852569Y-47620025D01*
X51877961Y-47662961D01*
X51895421Y-47731777D01*
X51872904Y-47799108D01*
X51817560Y-47843578D01*
X51769508Y-47853100D01*
X49985767Y-47853100D01*
X49966382Y-47851600D01*
X49951549Y-47849290D01*
X49951545Y-47849290D01*
X49942676Y-47847909D01*
X49928611Y-47849748D01*
X49902397Y-47850424D01*
X49747691Y-47838248D01*
X49728163Y-47835155D01*
X49698227Y-47827968D01*
X49553739Y-47793279D01*
X49534945Y-47787173D01*
X49369216Y-47718526D01*
X49351605Y-47709552D01*
X49198658Y-47615825D01*
X49182670Y-47604210D01*
X49046266Y-47487710D01*
X49032288Y-47473732D01*
X48915790Y-47337330D01*
X48904175Y-47321342D01*
X48810448Y-47168395D01*
X48801474Y-47150784D01*
X48732827Y-46985055D01*
X48726719Y-46966256D01*
X48723914Y-46954570D01*
X48684845Y-46791836D01*
X48681752Y-46772309D01*
X48670409Y-46628183D01*
X48671394Y-46605858D01*
X48670734Y-46605799D01*
X48671169Y-46600951D01*
X48671976Y-46596152D01*
X48672129Y-46583600D01*
X48668173Y-46555976D01*
X48666900Y-46538114D01*
X48666900Y-44649095D01*
X49432163Y-44649095D01*
X49488110Y-44801156D01*
X49493677Y-44812569D01*
X49589508Y-44967128D01*
X49597260Y-44977194D01*
X49722208Y-45109323D01*
X49731826Y-45117625D01*
X49880787Y-45221928D01*
X49891881Y-45228128D01*
X50058780Y-45300352D01*
X50070883Y-45304191D01*
X50250400Y-45341695D01*
X50259952Y-45342935D01*
X50263184Y-45343020D01*
X50483685Y-45343020D01*
X50498924Y-45338545D01*
X50500129Y-45337155D01*
X50501800Y-45329472D01*
X50501800Y-44657135D01*
X50497325Y-44641896D01*
X50495935Y-44640691D01*
X50488252Y-44639020D01*
X49446571Y-44639020D01*
X49433040Y-44642993D01*
X49432163Y-44649095D01*
X48666900Y-44649095D01*
X48666900Y-44113490D01*
X49436549Y-44113490D01*
X49436983Y-44127584D01*
X49445164Y-44131020D01*
X50483685Y-44131020D01*
X50498924Y-44126545D01*
X50500129Y-44125155D01*
X50501800Y-44117472D01*
X50501800Y-44112905D01*
X51009800Y-44112905D01*
X51014275Y-44128144D01*
X51015665Y-44129349D01*
X51023348Y-44131020D01*
X52065029Y-44131020D01*
X52078560Y-44127047D01*
X52079437Y-44120945D01*
X52023490Y-43968884D01*
X52017923Y-43957471D01*
X51922092Y-43802912D01*
X51914340Y-43792846D01*
X51789392Y-43660717D01*
X51779774Y-43652415D01*
X51630813Y-43548112D01*
X51619719Y-43541912D01*
X51452820Y-43469688D01*
X51440717Y-43465849D01*
X51261200Y-43428345D01*
X51251648Y-43427105D01*
X51248416Y-43427020D01*
X51027915Y-43427020D01*
X51012676Y-43431495D01*
X51011471Y-43432885D01*
X51009800Y-43440568D01*
X51009800Y-44112905D01*
X50501800Y-44112905D01*
X50501800Y-43445135D01*
X50497325Y-43429896D01*
X50495935Y-43428691D01*
X50488252Y-43427020D01*
X50310353Y-43427020D01*
X50303978Y-43427343D01*
X50168523Y-43441102D01*
X50156083Y-43443656D01*
X49982556Y-43498036D01*
X49970868Y-43503045D01*
X49811821Y-43591207D01*
X49801388Y-43598458D01*
X49663309Y-43716805D01*
X49654556Y-43725996D01*
X49543089Y-43869700D01*
X49536365Y-43880460D01*
X49456068Y-44043645D01*
X49451645Y-44055539D01*
X49436549Y-44113490D01*
X48666900Y-44113490D01*
X48666900Y-36009095D01*
X49432163Y-36009095D01*
X49488110Y-36161156D01*
X49493677Y-36172569D01*
X49589508Y-36327128D01*
X49597260Y-36337194D01*
X49722208Y-36469323D01*
X49731826Y-36477625D01*
X49880787Y-36581928D01*
X49891881Y-36588128D01*
X50058780Y-36660352D01*
X50070883Y-36664191D01*
X50250400Y-36701695D01*
X50259952Y-36702935D01*
X50263184Y-36703020D01*
X50483685Y-36703020D01*
X50498924Y-36698545D01*
X50500129Y-36697155D01*
X50501800Y-36689472D01*
X50501800Y-36684905D01*
X51009800Y-36684905D01*
X51014275Y-36700144D01*
X51015665Y-36701349D01*
X51023348Y-36703020D01*
X51201247Y-36703020D01*
X51207622Y-36702697D01*
X51343077Y-36688938D01*
X51355517Y-36686384D01*
X51529044Y-36632004D01*
X51540732Y-36626995D01*
X51699779Y-36538833D01*
X51710212Y-36531582D01*
X51848291Y-36413235D01*
X51857044Y-36404044D01*
X51968511Y-36260340D01*
X51975235Y-36249580D01*
X52055532Y-36086395D01*
X52059955Y-36074501D01*
X52075051Y-36016550D01*
X52074617Y-36002456D01*
X52066436Y-35999020D01*
X51027915Y-35999020D01*
X51012676Y-36003495D01*
X51011471Y-36004885D01*
X51009800Y-36012568D01*
X51009800Y-36684905D01*
X50501800Y-36684905D01*
X50501800Y-36017135D01*
X50497325Y-36001896D01*
X50495935Y-36000691D01*
X50488252Y-35999020D01*
X49446571Y-35999020D01*
X49433040Y-36002993D01*
X49432163Y-36009095D01*
X48666900Y-36009095D01*
X48666900Y-35781700D01*
X48686902Y-35713579D01*
X48740558Y-35667086D01*
X48792900Y-35655700D01*
X48914287Y-35655700D01*
X48920739Y-35654328D01*
X48920744Y-35654328D01*
X49011832Y-35634966D01*
X49101088Y-35615994D01*
X49107119Y-35613309D01*
X49269522Y-35541003D01*
X49269524Y-35541002D01*
X49275552Y-35538318D01*
X49292526Y-35525986D01*
X49321519Y-35504921D01*
X49388387Y-35481062D01*
X49444371Y-35490687D01*
X49445164Y-35491020D01*
X52065029Y-35491020D01*
X52079181Y-35486865D01*
X52107804Y-35424188D01*
X52167530Y-35385804D01*
X52203029Y-35380700D01*
X53261233Y-35380700D01*
X53272416Y-35381227D01*
X53279909Y-35382902D01*
X53287835Y-35382653D01*
X53287836Y-35382653D01*
X53327574Y-35381404D01*
X53396289Y-35399257D01*
X53444445Y-35451425D01*
X53452167Y-35482275D01*
X53455341Y-35486894D01*
X53465164Y-35491020D01*
X54653685Y-35491020D01*
X54668924Y-35486545D01*
X54670129Y-35485155D01*
X54671800Y-35477472D01*
X54671800Y-35472905D01*
X55179800Y-35472905D01*
X55184275Y-35488144D01*
X55185665Y-35489349D01*
X55193348Y-35491020D01*
X56385029Y-35491020D01*
X56398560Y-35487047D01*
X56399437Y-35480945D01*
X56343490Y-35328884D01*
X56337923Y-35317471D01*
X56242092Y-35162912D01*
X56234340Y-35152846D01*
X56109392Y-35020717D01*
X56099774Y-35012415D01*
X55950813Y-34908112D01*
X55939719Y-34901912D01*
X55772820Y-34829688D01*
X55760717Y-34825849D01*
X55581200Y-34788345D01*
X55571648Y-34787105D01*
X55568416Y-34787020D01*
X55197915Y-34787020D01*
X55182676Y-34791495D01*
X55181471Y-34792885D01*
X55179800Y-34800568D01*
X55179800Y-35472905D01*
X54671800Y-35472905D01*
X54671800Y-34805135D01*
X54667325Y-34789896D01*
X54665935Y-34788691D01*
X54658252Y-34787020D01*
X54500275Y-34787020D01*
X54432154Y-34767018D01*
X54385661Y-34713362D01*
X54375557Y-34643088D01*
X54405051Y-34578508D01*
X54411180Y-34571924D01*
X54505577Y-34477528D01*
X54835501Y-34147604D01*
X54897813Y-34113579D01*
X54924596Y-34110700D01*
X56651766Y-34110700D01*
X56719887Y-34130702D01*
G37*
%TD.AperFunction*%
%TA.AperFunction,Conductor*%
G36*
X65868733Y-41052250D02*
G01*
X65925568Y-41094797D01*
X65950379Y-41161317D01*
X65950700Y-41170306D01*
X65950700Y-42012000D01*
X65930698Y-42080121D01*
X65877042Y-42126614D01*
X65824700Y-42138000D01*
X65681315Y-42138000D01*
X65666076Y-42142475D01*
X65664871Y-42143865D01*
X65663200Y-42151548D01*
X65663200Y-43074000D01*
X65643198Y-43142121D01*
X65589542Y-43188614D01*
X65537200Y-43200000D01*
X64072322Y-43200000D01*
X64058791Y-43203973D01*
X64057656Y-43211871D01*
X64098307Y-43351790D01*
X64104552Y-43366221D01*
X64185145Y-43502498D01*
X64183324Y-43503575D01*
X64205263Y-43559438D01*
X64191368Y-43629062D01*
X64185056Y-43638884D01*
X64184747Y-43639193D01*
X64183471Y-43641350D01*
X64183463Y-43641363D01*
X64158375Y-43683785D01*
X64100055Y-43782399D01*
X64053638Y-43942169D01*
X64053134Y-43948574D01*
X64053133Y-43948579D01*
X64051535Y-43968884D01*
X64050700Y-43979498D01*
X64050700Y-44412502D01*
X64050893Y-44414950D01*
X64050893Y-44414958D01*
X64051455Y-44422091D01*
X64053638Y-44449831D01*
X64079351Y-44538338D01*
X64093416Y-44586748D01*
X64100055Y-44609601D01*
X64104092Y-44616427D01*
X64184747Y-44752807D01*
X64182959Y-44753864D01*
X64204945Y-44809851D01*
X64191049Y-44879475D01*
X64184906Y-44889034D01*
X64184747Y-44889193D01*
X64100055Y-45032399D01*
X64053638Y-45192169D01*
X64053134Y-45198574D01*
X64053133Y-45198579D01*
X64050893Y-45227042D01*
X64050700Y-45229498D01*
X64050700Y-45491205D01*
X64030698Y-45559326D01*
X64013795Y-45580300D01*
X62957762Y-46636333D01*
X62895450Y-46670359D01*
X62861933Y-46673048D01*
X62858734Y-46672700D01*
X62312466Y-46672700D01*
X62250284Y-46679455D01*
X62113895Y-46730585D01*
X61997339Y-46817939D01*
X61909985Y-46934495D01*
X61858855Y-47070884D01*
X61852100Y-47133066D01*
X61852100Y-47449700D01*
X61832098Y-47517821D01*
X61778442Y-47564314D01*
X61726100Y-47575700D01*
X60404640Y-47575700D01*
X60336519Y-47555698D01*
X60290026Y-47502042D01*
X60279377Y-47436092D01*
X60284831Y-47385886D01*
X60285200Y-47379072D01*
X60285200Y-47352515D01*
X60280725Y-47337276D01*
X60279335Y-47336071D01*
X60271652Y-47334400D01*
X59712495Y-47334400D01*
X59644374Y-47314398D01*
X59623400Y-47297495D01*
X59475400Y-47149495D01*
X59441374Y-47087183D01*
X59446439Y-47016368D01*
X59488986Y-46959532D01*
X59555506Y-46934721D01*
X59564495Y-46934400D01*
X60267084Y-46934400D01*
X60282323Y-46929925D01*
X60283528Y-46928535D01*
X60285199Y-46920852D01*
X60285199Y-46889731D01*
X60284829Y-46882910D01*
X60279305Y-46832048D01*
X60275679Y-46816796D01*
X60230521Y-46696339D01*
X60230026Y-46695434D01*
X60229807Y-46694434D01*
X60227372Y-46687938D01*
X60228310Y-46687586D01*
X60214857Y-46626077D01*
X60228038Y-46581188D01*
X60227815Y-46581105D01*
X60228956Y-46578063D01*
X60228958Y-46578056D01*
X60237236Y-46555976D01*
X60276171Y-46452115D01*
X60278945Y-46444716D01*
X60285700Y-46382534D01*
X60285700Y-45886266D01*
X60278945Y-45824084D01*
X60231918Y-45698639D01*
X60223900Y-45654410D01*
X60223900Y-45598694D01*
X60241446Y-45534555D01*
X60316634Y-45407419D01*
X60316634Y-45407418D01*
X60320669Y-45400596D01*
X60324078Y-45388864D01*
X60361381Y-45260463D01*
X60366029Y-45244466D01*
X60367401Y-45227042D01*
X60368707Y-45210444D01*
X60368707Y-45210438D01*
X60368900Y-45207989D01*
X60368899Y-45001259D01*
X60388901Y-44933140D01*
X60442556Y-44886647D01*
X60512830Y-44876542D01*
X60546148Y-44886154D01*
X60570073Y-44896806D01*
X60570079Y-44896808D01*
X60576112Y-44899494D01*
X60684669Y-44922569D01*
X60747141Y-44956296D01*
X60778304Y-45006879D01*
X60808503Y-45099822D01*
X60811806Y-45105544D01*
X60811807Y-45105545D01*
X60819588Y-45119022D01*
X60903990Y-45265210D01*
X60908408Y-45270117D01*
X60908409Y-45270118D01*
X60973974Y-45342935D01*
X61031777Y-45407132D01*
X61186278Y-45519384D01*
X61192306Y-45522068D01*
X61192308Y-45522069D01*
X61323098Y-45580300D01*
X61360742Y-45597060D01*
X61431335Y-45612065D01*
X61541086Y-45635394D01*
X61541091Y-45635394D01*
X61547543Y-45636766D01*
X61729496Y-45636766D01*
X61797617Y-45656768D01*
X61844110Y-45710424D01*
X61854759Y-45749159D01*
X61858495Y-45783553D01*
X61862121Y-45798804D01*
X61907276Y-45919254D01*
X61915814Y-45934849D01*
X61992315Y-46036924D01*
X62004876Y-46049485D01*
X62106951Y-46125986D01*
X62122546Y-46134524D01*
X62242994Y-46179678D01*
X62258249Y-46183305D01*
X62309114Y-46188831D01*
X62315928Y-46189200D01*
X62342485Y-46189200D01*
X62357724Y-46184725D01*
X62358929Y-46183335D01*
X62360600Y-46175652D01*
X62360600Y-46171084D01*
X62810600Y-46171084D01*
X62815075Y-46186323D01*
X62816465Y-46187528D01*
X62824148Y-46189199D01*
X62855269Y-46189199D01*
X62862090Y-46188829D01*
X62912952Y-46183305D01*
X62928204Y-46179679D01*
X63048654Y-46134524D01*
X63064249Y-46125986D01*
X63166324Y-46049485D01*
X63178885Y-46036924D01*
X63255386Y-45934849D01*
X63263924Y-45919254D01*
X63309078Y-45798806D01*
X63312705Y-45783551D01*
X63318231Y-45732686D01*
X63318600Y-45725872D01*
X63318600Y-45624315D01*
X63314125Y-45609076D01*
X63312735Y-45607871D01*
X63305052Y-45606200D01*
X62828715Y-45606200D01*
X62813476Y-45610675D01*
X62812271Y-45612065D01*
X62810600Y-45619748D01*
X62810600Y-46171084D01*
X62360600Y-46171084D01*
X62360600Y-45334526D01*
X62380412Y-45267051D01*
X62382070Y-45265210D01*
X62455466Y-45138085D01*
X62810600Y-45138085D01*
X62815075Y-45153324D01*
X62816465Y-45154529D01*
X62824148Y-45156200D01*
X63300484Y-45156200D01*
X63315723Y-45151725D01*
X63316928Y-45150335D01*
X63318599Y-45142652D01*
X63318599Y-45036531D01*
X63318229Y-45029710D01*
X63312705Y-44978848D01*
X63309079Y-44963596D01*
X63263924Y-44843146D01*
X63255386Y-44827551D01*
X63178885Y-44725476D01*
X63166324Y-44712915D01*
X63064249Y-44636414D01*
X63048654Y-44627876D01*
X62928206Y-44582722D01*
X62912951Y-44579095D01*
X62862086Y-44573569D01*
X62855272Y-44573200D01*
X62828715Y-44573200D01*
X62813476Y-44577675D01*
X62812271Y-44579065D01*
X62810600Y-44586748D01*
X62810600Y-45138085D01*
X62455466Y-45138085D01*
X62466472Y-45119022D01*
X62474253Y-45105545D01*
X62474254Y-45105544D01*
X62477557Y-45099822D01*
X62536572Y-44918194D01*
X62538538Y-44899494D01*
X62555844Y-44734831D01*
X62556534Y-44728266D01*
X62545645Y-44624659D01*
X62537262Y-44544901D01*
X62537262Y-44544899D01*
X62536572Y-44538338D01*
X62477557Y-44356710D01*
X62382070Y-44191322D01*
X62308893Y-44110051D01*
X62278177Y-44046045D01*
X62276530Y-44025742D01*
X62276530Y-43983288D01*
X62296532Y-43915167D01*
X62350188Y-43868674D01*
X62356779Y-43866216D01*
X62358929Y-43863735D01*
X62360600Y-43856052D01*
X62360600Y-43851484D01*
X62810600Y-43851484D01*
X62815075Y-43866723D01*
X62816465Y-43867928D01*
X62824148Y-43869599D01*
X62855269Y-43869599D01*
X62862090Y-43869229D01*
X62912952Y-43863705D01*
X62928204Y-43860079D01*
X63048654Y-43814924D01*
X63064249Y-43806386D01*
X63166324Y-43729885D01*
X63178885Y-43717324D01*
X63255386Y-43615249D01*
X63263924Y-43599654D01*
X63309078Y-43479206D01*
X63312705Y-43463951D01*
X63318231Y-43413086D01*
X63318600Y-43406272D01*
X63318600Y-43304715D01*
X63314125Y-43289476D01*
X63312735Y-43288271D01*
X63305052Y-43286600D01*
X62828715Y-43286600D01*
X62813476Y-43291075D01*
X62812271Y-43292465D01*
X62810600Y-43300148D01*
X62810600Y-43851484D01*
X62360600Y-43851484D01*
X62360600Y-43059694D01*
X62380602Y-42991573D01*
X62397505Y-42970599D01*
X62475620Y-42892484D01*
X62537932Y-42858458D01*
X62590912Y-42858332D01*
X62636056Y-42867928D01*
X62636061Y-42867928D01*
X62642513Y-42869300D01*
X62833487Y-42869300D01*
X62839939Y-42867928D01*
X62839944Y-42867928D01*
X62974376Y-42839353D01*
X63000573Y-42836600D01*
X63300484Y-42836600D01*
X63315723Y-42832125D01*
X63316928Y-42830735D01*
X63318599Y-42823052D01*
X63318599Y-42722077D01*
X63338601Y-42653956D01*
X63350963Y-42637767D01*
X63472621Y-42502652D01*
X63472622Y-42502651D01*
X63477040Y-42497744D01*
X63572527Y-42332356D01*
X63619683Y-42187226D01*
X63624350Y-42172863D01*
X63664424Y-42114258D01*
X63729821Y-42086621D01*
X63744183Y-42085800D01*
X64184657Y-42085800D01*
X64252778Y-42105802D01*
X64299271Y-42159458D01*
X64309375Y-42229732D01*
X64279881Y-42294312D01*
X64273752Y-42300895D01*
X64190751Y-42383896D01*
X64181111Y-42396322D01*
X64104552Y-42525779D01*
X64098307Y-42540210D01*
X64059261Y-42674605D01*
X64059301Y-42688706D01*
X64066570Y-42692000D01*
X65137085Y-42692000D01*
X65152324Y-42687525D01*
X65153529Y-42686135D01*
X65155200Y-42678452D01*
X65155200Y-42156116D01*
X65150725Y-42140877D01*
X65149335Y-42139672D01*
X65141652Y-42138001D01*
X64987985Y-42138001D01*
X64919864Y-42117999D01*
X64873371Y-42064343D01*
X64863267Y-41994069D01*
X64892761Y-41929489D01*
X64900093Y-41921858D01*
X64905717Y-41917772D01*
X64910766Y-41911669D01*
X64910769Y-41911666D01*
X64933903Y-41883702D01*
X64941893Y-41874921D01*
X65735605Y-41081210D01*
X65797917Y-41047185D01*
X65868733Y-41052250D01*
G37*
%TD.AperFunction*%
%TA.AperFunction,Conductor*%
G36*
X59479617Y-43542076D02*
G01*
X59537313Y-43585992D01*
X59538833Y-43588084D01*
X59545352Y-43598007D01*
X59563322Y-43628392D01*
X59567858Y-43636062D01*
X59582179Y-43650383D01*
X59595019Y-43665416D01*
X59606928Y-43681807D01*
X59613033Y-43686858D01*
X59613038Y-43686863D01*
X59640998Y-43709994D01*
X59649776Y-43717981D01*
X59795531Y-43863735D01*
X59846200Y-43914404D01*
X59880225Y-43976716D01*
X59875161Y-44047532D01*
X59832614Y-44104368D01*
X59766094Y-44129179D01*
X59757105Y-44129500D01*
X59418065Y-44129501D01*
X59390412Y-44129501D01*
X59353934Y-44132371D01*
X59289878Y-44150981D01*
X59205417Y-44175519D01*
X59205415Y-44175520D01*
X59197804Y-44177731D01*
X59190979Y-44181767D01*
X59190975Y-44181769D01*
X59144539Y-44209231D01*
X59075723Y-44226691D01*
X59016261Y-44209231D01*
X58969825Y-44181769D01*
X58969821Y-44181767D01*
X58962996Y-44177731D01*
X58955385Y-44175520D01*
X58955383Y-44175519D01*
X58870922Y-44150981D01*
X58839474Y-44141845D01*
X58779640Y-44103632D01*
X58749962Y-44039136D01*
X58759865Y-43968833D01*
X58806205Y-43915045D01*
X58838420Y-43900163D01*
X58867644Y-43891395D01*
X58877242Y-43887633D01*
X59068495Y-43793939D01*
X59077345Y-43788664D01*
X59250728Y-43664992D01*
X59258600Y-43658339D01*
X59346439Y-43570805D01*
X59408810Y-43536888D01*
X59479617Y-43542076D01*
G37*
%TD.AperFunction*%
%TA.AperFunction,Conductor*%
G36*
X65635327Y-33159702D02*
G01*
X65656301Y-33176605D01*
X65813795Y-33334099D01*
X65847821Y-33396411D01*
X65850700Y-33423194D01*
X65850700Y-33462202D01*
X65850173Y-33473385D01*
X65848498Y-33480878D01*
X65848747Y-33488804D01*
X65848747Y-33488805D01*
X65850638Y-33548955D01*
X65850700Y-33552914D01*
X65850700Y-33580825D01*
X65851197Y-33584759D01*
X65851197Y-33584760D01*
X65851205Y-33584825D01*
X65852138Y-33596662D01*
X65853527Y-33640858D01*
X65859178Y-33660308D01*
X65863187Y-33679669D01*
X65865726Y-33699766D01*
X65868645Y-33707137D01*
X65868645Y-33707139D01*
X65880078Y-33736015D01*
X65886559Y-33806715D01*
X65853787Y-33869695D01*
X65792168Y-33904960D01*
X65762927Y-33908400D01*
X65681315Y-33908400D01*
X65666076Y-33912875D01*
X65664871Y-33914265D01*
X65663200Y-33921948D01*
X65663200Y-34844400D01*
X65643198Y-34912521D01*
X65589542Y-34959014D01*
X65537200Y-34970400D01*
X64072322Y-34970400D01*
X64058791Y-34974373D01*
X64057656Y-34982271D01*
X64098307Y-35122190D01*
X64104552Y-35136621D01*
X64185145Y-35272898D01*
X64183324Y-35273975D01*
X64205263Y-35329838D01*
X64191368Y-35399462D01*
X64185056Y-35409284D01*
X64184747Y-35409593D01*
X64183471Y-35411750D01*
X64183463Y-35411763D01*
X64131161Y-35500202D01*
X64100055Y-35552799D01*
X64053638Y-35712569D01*
X64050700Y-35749898D01*
X64050700Y-36105054D01*
X64030698Y-36173175D01*
X64013795Y-36194149D01*
X63841947Y-36365997D01*
X63833661Y-36373537D01*
X63827182Y-36377649D01*
X63821757Y-36383426D01*
X63780557Y-36427300D01*
X63777802Y-36430142D01*
X63758065Y-36449879D01*
X63755585Y-36453076D01*
X63747882Y-36462096D01*
X63717614Y-36494328D01*
X63713795Y-36501274D01*
X63713793Y-36501277D01*
X63707852Y-36512083D01*
X63697001Y-36528602D01*
X63684586Y-36544608D01*
X63681441Y-36551877D01*
X63681438Y-36551881D01*
X63667026Y-36585186D01*
X63661809Y-36595836D01*
X63640505Y-36634589D01*
X63638534Y-36642264D01*
X63638534Y-36642265D01*
X63635467Y-36654211D01*
X63629063Y-36672915D01*
X63621019Y-36691504D01*
X63619780Y-36699327D01*
X63619777Y-36699337D01*
X63614101Y-36735173D01*
X63611695Y-36746793D01*
X63603126Y-36780170D01*
X63600700Y-36789619D01*
X63600700Y-36809873D01*
X63599149Y-36829583D01*
X63595980Y-36849592D01*
X63596726Y-36857484D01*
X63600141Y-36893610D01*
X63600700Y-36905468D01*
X63600700Y-37484384D01*
X63600173Y-37495567D01*
X63598498Y-37503060D01*
X63598747Y-37510986D01*
X63598747Y-37510987D01*
X63600638Y-37571137D01*
X63600700Y-37575096D01*
X63600700Y-37603007D01*
X63601197Y-37606941D01*
X63601197Y-37606942D01*
X63601205Y-37607007D01*
X63602138Y-37618844D01*
X63603527Y-37663040D01*
X63608131Y-37678887D01*
X63609178Y-37682490D01*
X63613187Y-37701851D01*
X63615726Y-37721948D01*
X63618645Y-37729321D01*
X63620571Y-37736822D01*
X63618137Y-37807777D01*
X63607646Y-37831160D01*
X63602519Y-37840040D01*
X63543504Y-38021668D01*
X63542814Y-38028229D01*
X63542814Y-38028231D01*
X63540229Y-38052830D01*
X63523542Y-38211596D01*
X63524232Y-38218161D01*
X63542707Y-38393937D01*
X63543504Y-38401524D01*
X63602519Y-38583152D01*
X63605822Y-38588874D01*
X63605823Y-38588875D01*
X63662905Y-38687744D01*
X63698006Y-38748540D01*
X63742847Y-38798340D01*
X63743124Y-38798648D01*
X63773841Y-38862655D01*
X63765078Y-38933109D01*
X63757941Y-38947099D01*
X63756572Y-38949413D01*
X63751713Y-38955678D01*
X63748567Y-38962949D01*
X63748563Y-38962955D01*
X63734153Y-38996256D01*
X63728936Y-39006906D01*
X63707632Y-39045659D01*
X63705661Y-39053334D01*
X63705661Y-39053335D01*
X63702594Y-39065281D01*
X63696190Y-39083985D01*
X63688146Y-39102574D01*
X63686907Y-39110397D01*
X63686904Y-39110407D01*
X63685048Y-39122126D01*
X63654634Y-39186279D01*
X63594365Y-39223804D01*
X63523375Y-39222788D01*
X63471504Y-39191507D01*
X63432106Y-39152108D01*
X63356004Y-39076006D01*
X63321979Y-39013694D01*
X63319100Y-38986911D01*
X63319100Y-38852666D01*
X63312345Y-38790484D01*
X63261215Y-38654095D01*
X63173861Y-38537539D01*
X63057305Y-38450185D01*
X62920916Y-38399055D01*
X62858734Y-38392300D01*
X62312466Y-38392300D01*
X62250284Y-38399055D01*
X62113895Y-38450185D01*
X61997339Y-38537539D01*
X61909985Y-38654095D01*
X61858855Y-38790484D01*
X61852100Y-38852666D01*
X61852100Y-39548934D01*
X61858855Y-39611116D01*
X61909985Y-39747505D01*
X61997339Y-39864061D01*
X62113895Y-39951415D01*
X62122303Y-39954567D01*
X62145379Y-39963218D01*
X62202143Y-40005860D01*
X62226843Y-40072422D01*
X62211635Y-40141770D01*
X62161349Y-40191888D01*
X62145379Y-40199182D01*
X62113895Y-40210985D01*
X61997339Y-40298339D01*
X61909985Y-40414895D01*
X61858855Y-40551284D01*
X61852100Y-40613466D01*
X61852100Y-41144805D01*
X61832098Y-41212926D01*
X61778442Y-41259419D01*
X61708168Y-41269523D01*
X61643588Y-41240029D01*
X61637004Y-41233900D01*
X61497902Y-41094797D01*
X61325604Y-40922499D01*
X61291579Y-40860187D01*
X61288700Y-40833404D01*
X61288700Y-37445469D01*
X61852601Y-37445469D01*
X61852971Y-37452290D01*
X61858495Y-37503152D01*
X61862121Y-37518404D01*
X61907276Y-37638854D01*
X61915814Y-37654449D01*
X61992315Y-37756524D01*
X62004876Y-37769085D01*
X62106951Y-37845586D01*
X62122546Y-37854124D01*
X62242994Y-37899278D01*
X62258249Y-37902905D01*
X62309114Y-37908431D01*
X62315928Y-37908800D01*
X62342485Y-37908800D01*
X62357724Y-37904325D01*
X62358929Y-37902935D01*
X62360600Y-37895252D01*
X62360600Y-37890684D01*
X62810600Y-37890684D01*
X62815075Y-37905923D01*
X62816465Y-37907128D01*
X62824148Y-37908799D01*
X62855269Y-37908799D01*
X62862090Y-37908429D01*
X62912952Y-37902905D01*
X62928204Y-37899279D01*
X63048654Y-37854124D01*
X63064249Y-37845586D01*
X63166324Y-37769085D01*
X63178885Y-37756524D01*
X63255386Y-37654449D01*
X63263924Y-37638854D01*
X63309078Y-37518406D01*
X63312705Y-37503151D01*
X63318231Y-37452286D01*
X63318600Y-37445472D01*
X63318600Y-37343915D01*
X63314125Y-37328676D01*
X63312735Y-37327471D01*
X63305052Y-37325800D01*
X62828715Y-37325800D01*
X62813476Y-37330275D01*
X62812271Y-37331665D01*
X62810600Y-37339348D01*
X62810600Y-37890684D01*
X62360600Y-37890684D01*
X62360600Y-37343915D01*
X62356125Y-37328676D01*
X62354735Y-37327471D01*
X62347052Y-37325800D01*
X61870716Y-37325800D01*
X61855477Y-37330275D01*
X61854272Y-37331665D01*
X61852601Y-37339348D01*
X61852601Y-37445469D01*
X61288700Y-37445469D01*
X61288700Y-37093795D01*
X61308702Y-37025674D01*
X61325605Y-37004699D01*
X61570901Y-36759404D01*
X61633213Y-36725379D01*
X61659996Y-36722500D01*
X61715887Y-36722500D01*
X61715887Y-36722514D01*
X61783268Y-36734836D01*
X61835114Y-36783338D01*
X61852600Y-36847374D01*
X61852600Y-36857685D01*
X61857075Y-36872924D01*
X61858465Y-36874129D01*
X61866148Y-36875800D01*
X62342485Y-36875800D01*
X62357724Y-36871325D01*
X62358929Y-36869935D01*
X62360600Y-36862252D01*
X62360600Y-36857685D01*
X62810600Y-36857685D01*
X62815075Y-36872924D01*
X62816465Y-36874129D01*
X62824148Y-36875800D01*
X63300484Y-36875800D01*
X63315723Y-36871325D01*
X63316928Y-36869935D01*
X63318599Y-36862252D01*
X63318599Y-36756131D01*
X63318229Y-36749310D01*
X63312705Y-36698448D01*
X63309079Y-36683196D01*
X63263924Y-36562746D01*
X63255386Y-36547151D01*
X63178885Y-36445076D01*
X63166324Y-36432515D01*
X63064249Y-36356014D01*
X63048654Y-36347476D01*
X62928206Y-36302322D01*
X62912951Y-36298695D01*
X62862086Y-36293169D01*
X62855272Y-36292800D01*
X62828715Y-36292800D01*
X62813476Y-36297275D01*
X62812271Y-36298665D01*
X62810600Y-36306348D01*
X62810600Y-36857685D01*
X62360600Y-36857685D01*
X62360600Y-36382696D01*
X62377481Y-36319696D01*
X62393010Y-36292800D01*
X62411768Y-36260309D01*
X62451623Y-36191279D01*
X62451624Y-36191278D01*
X62454927Y-36185556D01*
X62513942Y-36003928D01*
X62533904Y-35814000D01*
X62524904Y-35728370D01*
X62537676Y-35658532D01*
X62586178Y-35606685D01*
X62650213Y-35589200D01*
X62804468Y-35589199D01*
X62811290Y-35588829D01*
X62862152Y-35583305D01*
X62877404Y-35579679D01*
X62997854Y-35534524D01*
X63013449Y-35525986D01*
X63115524Y-35449485D01*
X63128085Y-35436924D01*
X63204586Y-35334849D01*
X63213124Y-35319254D01*
X63258278Y-35198806D01*
X63261905Y-35183551D01*
X63267431Y-35132686D01*
X63267800Y-35125872D01*
X63267800Y-35024315D01*
X63263325Y-35009076D01*
X63261935Y-35007871D01*
X63254252Y-35006200D01*
X62435800Y-35006200D01*
X62367679Y-34986198D01*
X62321186Y-34932542D01*
X62309800Y-34880200D01*
X62309800Y-34682200D01*
X62329802Y-34614079D01*
X62383458Y-34567586D01*
X62435800Y-34556200D01*
X63249684Y-34556200D01*
X63264923Y-34551725D01*
X63266128Y-34550335D01*
X63267799Y-34542652D01*
X63267799Y-34436531D01*
X63267430Y-34429724D01*
X63266540Y-34421531D01*
X63279067Y-34351648D01*
X63327386Y-34299631D01*
X63396158Y-34281995D01*
X63418000Y-34284673D01*
X63550456Y-34312828D01*
X63550461Y-34312828D01*
X63556913Y-34314200D01*
X63747887Y-34314200D01*
X63754339Y-34312828D01*
X63754344Y-34312828D01*
X63914328Y-34278822D01*
X63985119Y-34284224D01*
X64041752Y-34327041D01*
X64066245Y-34393679D01*
X64061521Y-34437224D01*
X64059261Y-34445003D01*
X64059301Y-34459106D01*
X64066570Y-34462400D01*
X65137085Y-34462400D01*
X65152324Y-34457925D01*
X65153529Y-34456535D01*
X65155200Y-34448852D01*
X65155200Y-33926516D01*
X65150725Y-33911277D01*
X65149335Y-33910072D01*
X65141652Y-33908401D01*
X64645217Y-33908401D01*
X64640278Y-33908595D01*
X64627094Y-33909632D01*
X64557615Y-33895034D01*
X64507057Y-33845189D01*
X64491473Y-33775924D01*
X64497379Y-33745088D01*
X64545942Y-33595628D01*
X64547078Y-33584825D01*
X64565214Y-33412265D01*
X64565904Y-33405700D01*
X64552574Y-33278870D01*
X64565346Y-33209032D01*
X64613848Y-33157185D01*
X64677884Y-33139700D01*
X65567206Y-33139700D01*
X65635327Y-33159702D01*
G37*
%TD.AperFunction*%
%TA.AperFunction,Conductor*%
G36*
X58820421Y-34130702D02*
G01*
X58866914Y-34184358D01*
X58877018Y-34254632D01*
X58870282Y-34280930D01*
X58823922Y-34404594D01*
X58820295Y-34419849D01*
X58814769Y-34470714D01*
X58814400Y-34477528D01*
X58814400Y-34504085D01*
X58818875Y-34519324D01*
X58820265Y-34520529D01*
X58827948Y-34522200D01*
X59482105Y-34522200D01*
X59550226Y-34542202D01*
X59571200Y-34559105D01*
X59576995Y-34564900D01*
X59611021Y-34627212D01*
X59613900Y-34653995D01*
X59613900Y-34846200D01*
X59593898Y-34914321D01*
X59540242Y-34960814D01*
X59487900Y-34972200D01*
X58832516Y-34972200D01*
X58817277Y-34976675D01*
X58816072Y-34978065D01*
X58814401Y-34985748D01*
X58814401Y-35016869D01*
X58814771Y-35023690D01*
X58820295Y-35074552D01*
X58823921Y-35089804D01*
X58869076Y-35210254D01*
X58877614Y-35225849D01*
X58954115Y-35327924D01*
X58966676Y-35340485D01*
X59068751Y-35416986D01*
X59084346Y-35425524D01*
X59204794Y-35470678D01*
X59220049Y-35474305D01*
X59270914Y-35479831D01*
X59277728Y-35480200D01*
X59346358Y-35480200D01*
X59414479Y-35500202D01*
X59460972Y-35553858D01*
X59471076Y-35624132D01*
X59464405Y-35647721D01*
X59464578Y-35647771D01*
X59462367Y-35655381D01*
X59459219Y-35662655D01*
X59457980Y-35670478D01*
X59457977Y-35670488D01*
X59452301Y-35706324D01*
X59449895Y-35717944D01*
X59442322Y-35747442D01*
X59438900Y-35760770D01*
X59438900Y-35781024D01*
X59437349Y-35800734D01*
X59434180Y-35820743D01*
X59434926Y-35828635D01*
X59438341Y-35864761D01*
X59438900Y-35876619D01*
X59438900Y-36060235D01*
X59418898Y-36128356D01*
X59365242Y-36174849D01*
X59299293Y-36185498D01*
X59276933Y-36183069D01*
X59276929Y-36183069D01*
X59273534Y-36182700D01*
X58281900Y-36182700D01*
X58213779Y-36162698D01*
X58167286Y-36109042D01*
X58155900Y-36056700D01*
X58155900Y-35415613D01*
X58175902Y-35347492D01*
X58185502Y-35335580D01*
X58185661Y-35335461D01*
X58189876Y-35329838D01*
X58248405Y-35251742D01*
X58273015Y-35218905D01*
X58324145Y-35082516D01*
X58330900Y-35020334D01*
X58330900Y-34474066D01*
X58324145Y-34411884D01*
X58275052Y-34280928D01*
X58269869Y-34210123D01*
X58303790Y-34147754D01*
X58366045Y-34113624D01*
X58393034Y-34110700D01*
X58752300Y-34110700D01*
X58820421Y-34130702D01*
G37*
%TD.AperFunction*%
%TD*%
M02*
